<svg width="160" height="44" viewBox="0 0 160 44" fill="none" xmlns="http://www.w3.org/2000/svg">
<rect width="160" height="44" rx="7" fill="#010005"/>
<path d="M50.204 16.884V14.172H51.032C51.448 13.652 51.756 12.948 51.956 12.06C52.156 11.164 52.256 10.052 52.256 8.724V6.54H57.872V14.172H59.072V16.884H58.172V15H51.092V16.884H50.204ZM52.064 14.172H56.876V7.368H53.18V8.796C53.18 10.084 53.088 11.16 52.904 12.024C52.728 12.888 52.448 13.604 52.064 14.172ZM62.7358 15.108C62.1678 15.108 61.6758 14.984 61.2598 14.736C60.8438 14.488 60.5198 14.14 60.2878 13.692C60.0638 13.236 59.9518 12.7 59.9518 12.084C59.9518 11.468 60.0638 10.936 60.2878 10.488C60.5198 10.032 60.8438 9.68 61.2598 9.432C61.6758 9.184 62.1678 9.06 62.7358 9.06C63.2958 9.06 63.7838 9.184 64.1998 9.432C64.6238 9.68 64.9478 10.032 65.1718 10.488C65.4038 10.936 65.5198 11.468 65.5198 12.084C65.5198 12.7 65.4038 13.236 65.1718 13.692C64.9478 14.14 64.6238 14.488 64.1998 14.736C63.7838 14.984 63.2958 15.108 62.7358 15.108ZM62.7358 14.328C63.2798 14.328 63.7158 14.136 64.0438 13.752C64.3718 13.36 64.5358 12.804 64.5358 12.084C64.5358 11.356 64.3718 10.8 64.0438 10.416C63.7158 10.032 63.2798 9.84 62.7358 9.84C62.1838 9.84 61.7438 10.032 61.4158 10.416C61.0958 10.8 60.9358 11.356 60.9358 12.084C60.9358 12.804 61.0958 13.36 61.4158 13.752C61.7438 14.136 62.1838 14.328 62.7358 14.328ZM69.5807 15.108C68.9967 15.108 68.4927 14.984 68.0687 14.736C67.6447 14.48 67.3167 14.124 67.0847 13.668C66.8607 13.204 66.7487 12.664 66.7487 12.048C66.7487 11.12 67.0007 10.392 67.5047 9.864C68.0087 9.328 68.7007 9.06 69.5807 9.06C69.9407 9.06 70.2967 9.124 70.6487 9.252C71.0007 9.38 71.2927 9.56 71.5247 9.792L71.1887 10.5C70.9567 10.276 70.7007 10.112 70.4207 10.008C70.1487 9.904 69.8887 9.852 69.6407 9.852C69.0327 9.852 68.5647 10.044 68.2367 10.428C67.9087 10.804 67.7447 11.348 67.7447 12.06C67.7447 12.756 67.9087 13.308 68.2367 13.716C68.5647 14.116 69.0327 14.316 69.6407 14.316C69.8887 14.316 70.1487 14.264 70.4207 14.16C70.7007 14.056 70.9567 13.888 71.1887 13.656L71.5247 14.364C71.2927 14.596 70.9967 14.78 70.6367 14.916C70.2847 15.044 69.9327 15.108 69.5807 15.108ZM73.9806 15V9.948H71.8686V9.168H77.0766V9.948H74.9526V15H73.9806ZM78.8081 17.16L79.8041 14.904L77.3441 9.168H78.4001L80.3321 13.896L82.2761 9.168H83.2961L79.8281 17.16H78.8081ZM84.417 15V9.168H89.505V15H88.533V9.948H85.389V15H84.417ZM91.4248 15V9.168H92.3968V11.592H95.5768V9.168H96.5488V15H95.5768V12.384H92.3968V15H91.4248ZM100.904 15.108C100.336 15.108 99.8438 14.984 99.4278 14.736C99.0118 14.488 98.6878 14.14 98.4558 13.692C98.2318 13.236 98.1198 12.7 98.1198 12.084C98.1198 11.468 98.2318 10.936 98.4558 10.488C98.6878 10.032 99.0118 9.68 99.4278 9.432C99.8438 9.184 100.336 9.06 100.904 9.06C101.464 9.06 101.952 9.184 102.368 9.432C102.792 9.68 103.116 10.032 103.34 10.488C103.572 10.936 103.688 11.468 103.688 12.084C103.688 12.7 103.572 13.236 103.34 13.692C103.116 14.14 102.792 14.488 102.368 14.736C101.952 14.984 101.464 15.108 100.904 15.108ZM100.904 14.328C101.448 14.328 101.884 14.136 102.212 13.752C102.54 13.36 102.704 12.804 102.704 12.084C102.704 11.356 102.54 10.8 102.212 10.416C101.884 10.032 101.448 9.84 100.904 9.84C100.352 9.84 99.9118 10.032 99.5838 10.416C99.2638 10.8 99.1038 11.356 99.1038 12.084C99.1038 12.804 99.2638 13.36 99.5838 13.752C99.9118 14.136 100.352 14.328 100.904 14.328ZM108.347 15V9.168H111.191C111.879 9.168 112.387 9.3 112.715 9.564C113.043 9.82 113.207 10.2 113.207 10.704C113.207 11.008 113.119 11.272 112.943 11.496C112.775 11.72 112.543 11.884 112.247 11.988C112.607 12.076 112.887 12.244 113.087 12.492C113.295 12.74 113.399 13.04 113.399 13.392C113.399 13.888 113.215 14.28 112.847 14.568C112.479 14.856 111.959 15 111.287 15H108.347ZM109.271 11.7H111.143C111.511 11.7 111.795 11.62 111.995 11.46C112.195 11.292 112.295 11.056 112.295 10.752C112.295 10.456 112.195 10.228 111.995 10.068C111.795 9.908 111.511 9.828 111.143 9.828H109.271V11.7ZM109.271 14.34H111.251C111.651 14.34 111.955 14.256 112.163 14.088C112.371 13.92 112.475 13.672 112.475 13.344C112.475 13.024 112.371 12.78 112.163 12.612C111.955 12.444 111.651 12.36 111.251 12.36H109.271V14.34Z" fill="white"/>
<path d="M50.176 35L55.2 23.72H56.576L61.616 35H59.92L58.736 32.248H53.024L51.856 35H50.176ZM55.872 25.56L53.616 30.904H58.176L55.904 25.56H55.872ZM62.9173 37.88V27.192H64.5013V28.52C64.7253 28.072 65.0666 27.7147 65.5253 27.448C65.9839 27.1813 66.5119 27.048 67.1093 27.048C67.8026 27.048 68.4053 27.2133 68.9173 27.544C69.4399 27.8747 69.8399 28.344 70.1173 28.952C70.4053 29.5493 70.5493 30.264 70.5493 31.096C70.5493 31.928 70.4053 32.648 70.1173 33.256C69.8399 33.864 69.4399 34.3333 68.9173 34.664C68.4053 34.984 67.8026 35.144 67.1093 35.144C66.5333 35.144 66.0159 35.0213 65.5573 34.776C65.1093 34.52 64.7679 34.1733 64.5333 33.736V37.88H62.9173ZM66.7093 33.896C67.3813 33.896 67.9146 33.656 68.3093 33.176C68.7146 32.696 68.9173 32.0027 68.9173 31.096C68.9173 30.1893 68.7146 29.5013 68.3093 29.032C67.9146 28.552 67.3813 28.312 66.7093 28.312C66.0373 28.312 65.4986 28.552 65.0933 29.032C64.6986 29.5013 64.5013 30.1893 64.5013 31.096C64.5013 32.0027 64.6986 32.696 65.0933 33.176C65.4986 33.656 66.0373 33.896 66.7093 33.896ZM72.3704 37.88V27.192H73.9544V28.52C74.1784 28.072 74.5197 27.7147 74.9784 27.448C75.437 27.1813 75.965 27.048 76.5624 27.048C77.2557 27.048 77.8584 27.2133 78.3704 27.544C78.893 27.8747 79.293 28.344 79.5704 28.952C79.8584 29.5493 80.0024 30.264 80.0024 31.096C80.0024 31.928 79.8584 32.648 79.5704 33.256C79.293 33.864 78.893 34.3333 78.3704 34.664C77.8584 34.984 77.2557 35.144 76.5624 35.144C75.9864 35.144 75.469 35.0213 75.0104 34.776C74.5624 34.52 74.221 34.1733 73.9864 33.736V37.88H72.3704ZM76.1624 33.896C76.8344 33.896 77.3677 33.656 77.7624 33.176C78.1677 32.696 78.3704 32.0027 78.3704 31.096C78.3704 30.1893 78.1677 29.5013 77.7624 29.032C77.3677 28.552 76.8344 28.312 76.1624 28.312C75.4904 28.312 74.9517 28.552 74.5464 29.032C74.1517 29.5013 73.9544 30.1893 73.9544 31.096C73.9544 32.0027 74.1517 32.696 74.5464 33.176C74.9517 33.656 75.4904 33.896 76.1624 33.896ZM89.9626 35.144C89.0773 35.144 88.2666 35.032 87.5306 34.808C86.7946 34.5733 86.1706 34.248 85.6586 33.832L86.1866 32.52C86.72 32.9253 87.2906 33.2293 87.8986 33.432C88.5066 33.6347 89.1946 33.736 89.9626 33.736C90.8693 33.736 91.536 33.576 91.9626 33.256C92.4 32.9253 92.6186 32.4987 92.6186 31.976C92.6186 31.5493 92.464 31.2133 92.1546 30.968C91.8453 30.712 91.328 30.5093 90.6026 30.36L88.8906 30.008C87.8773 29.7947 87.12 29.4427 86.6186 28.952C86.128 28.4613 85.8826 27.8 85.8826 26.968C85.8826 26.296 86.0586 25.704 86.4106 25.192C86.7733 24.68 87.2746 24.2853 87.9146 24.008C88.5546 23.72 89.2906 23.576 90.1226 23.576C90.8906 23.576 91.6 23.6933 92.2506 23.928C92.912 24.152 93.472 24.4827 93.9306 24.92L93.3866 26.184C92.48 25.384 91.3866 24.984 90.1066 24.984C89.3173 24.984 88.688 25.16 88.2186 25.512C87.76 25.864 87.5306 26.3333 87.5306 26.92C87.5306 27.368 87.6746 27.7253 87.9626 27.992C88.2506 28.2587 88.7306 28.4613 89.4026 28.6L91.0986 28.952C92.1653 29.176 92.96 29.5227 93.4826 29.992C94.0053 30.4507 94.2666 31.0747 94.2666 31.864C94.2666 32.5253 94.0906 33.1013 93.7386 33.592C93.3866 34.0827 92.8906 34.4667 92.2506 34.744C91.6106 35.0107 90.848 35.144 89.9626 35.144ZM99.2609 35.144C98.2795 35.144 97.5489 34.8933 97.0689 34.392C96.5889 33.8907 96.3489 33.1653 96.3489 32.216V28.44H94.8289V27.192H96.3489V24.84H97.9649V27.192H100.381V28.44H97.9649V32.088C97.9649 32.6533 98.0822 33.08 98.3169 33.368C98.5622 33.656 98.9569 33.8 99.5009 33.8C99.6715 33.8 99.8369 33.784 99.9969 33.752C100.157 33.7093 100.317 33.6613 100.477 33.608L100.733 34.824C100.573 34.92 100.349 34.9947 100.061 35.048C99.7835 35.112 99.5169 35.144 99.2609 35.144ZM105.091 35.144C104.301 35.144 103.619 34.9787 103.043 34.648C102.467 34.3173 102.019 33.8533 101.699 33.256C101.389 32.648 101.235 31.928 101.235 31.096C101.235 30.264 101.389 29.5493 101.699 28.952C102.019 28.344 102.467 27.8747 103.043 27.544C103.619 27.2133 104.301 27.048 105.091 27.048C105.859 27.048 106.531 27.2133 107.107 27.544C107.683 27.8747 108.131 28.344 108.451 28.952C108.771 29.5493 108.931 30.264 108.931 31.096C108.931 31.928 108.771 32.648 108.451 33.256C108.131 33.8533 107.683 34.3173 107.107 34.648C106.531 34.9787 105.859 35.144 105.091 35.144ZM105.091 33.896C105.752 33.896 106.285 33.656 106.691 33.176C107.096 32.696 107.299 32.0027 107.299 31.096C107.299 30.1893 107.096 29.5013 106.691 29.032C106.285 28.552 105.752 28.312 105.091 28.312C104.419 28.312 103.88 28.552 103.475 29.032C103.069 29.5013 102.867 30.1893 102.867 31.096C102.867 32.0027 103.069 32.696 103.475 33.176C103.88 33.656 104.419 33.896 105.091 33.896ZM110.745 35V27.192H112.313V28.584C112.719 27.656 113.561 27.1387 114.841 27.032L115.369 27L115.481 28.376L114.505 28.472C113.087 28.6107 112.377 29.3413 112.377 30.664V35H110.745ZM120.269 35.144C118.989 35.144 117.981 34.7867 117.245 34.072C116.509 33.3467 116.141 32.36 116.141 31.112C116.141 30.312 116.301 29.608 116.621 29C116.951 28.3813 117.405 27.9013 117.981 27.56C118.557 27.2187 119.218 27.048 119.965 27.048C121.042 27.048 121.89 27.3947 122.509 28.088C123.127 28.7707 123.437 29.7147 123.437 30.92V31.464H117.709C117.826 33.0853 118.685 33.896 120.285 33.896C120.733 33.896 121.17 33.8267 121.597 33.688C122.034 33.5493 122.445 33.32 122.829 33L123.309 34.12C122.957 34.44 122.503 34.6907 121.949 34.872C121.394 35.0533 120.834 35.144 120.269 35.144ZM120.029 28.184C119.357 28.184 118.823 28.392 118.429 28.808C118.034 29.224 117.794 29.7787 117.709 30.472H122.077C122.045 29.7467 121.853 29.1867 121.501 28.792C121.149 28.3867 120.658 28.184 120.029 28.184Z" fill="white"/>
<g clip-path="url(#clip0)">
<path d="M33.16 27.5863C32.8576 28.2851 32.4996 28.9283 32.0848 29.5196C31.5194 30.3257 31.0564 30.8838 30.6996 31.1936C30.1466 31.7022 29.554 31.9627 28.9194 31.9775C28.4639 31.9775 27.9145 31.8479 27.2751 31.585C26.6335 31.3232 26.0439 31.1936 25.5047 31.1936C24.9393 31.1936 24.3329 31.3232 23.6843 31.585C23.0347 31.8479 22.5114 31.985 22.1113 31.9985C21.5028 32.0245 20.8962 31.7566 20.2908 31.1936C19.9044 30.8566 19.4211 30.2788 18.8421 29.4603C18.2209 28.5863 17.7102 27.5727 17.3101 26.4172C16.8816 25.1691 16.6667 23.9605 16.6667 22.7904C16.6667 21.4501 16.9564 20.2941 17.5365 19.3253C17.9924 18.5472 18.5989 17.9334 19.358 17.4828C20.1171 17.0322 20.9374 16.8026 21.8207 16.7879C22.304 16.7879 22.9378 16.9374 23.7254 17.2312C24.5108 17.526 25.0151 17.6755 25.2362 17.6755C25.4015 17.6755 25.9618 17.5007 26.9115 17.1522C27.8096 16.829 28.5676 16.6952 29.1886 16.7479C30.8712 16.8837 32.1354 17.547 32.9761 18.742C31.4712 19.6538 30.7268 20.931 30.7416 22.5693C30.7552 23.8454 31.2181 24.9074 32.128 25.7506C32.5403 26.1419 33.0008 26.4444 33.5131 26.6592C33.402 26.9814 33.2847 27.29 33.16 27.5863ZM29.3009 12.4004C29.3009 13.4006 28.9355 14.3345 28.2071 15.1989C27.3281 16.2265 26.265 16.8203 25.112 16.7266C25.0973 16.6067 25.0888 16.4804 25.0888 16.3476C25.0888 15.3874 25.5068 14.3598 26.2492 13.5196C26.6198 13.0942 27.0911 12.7404 27.6627 12.4583C28.233 12.1803 28.7725 12.0266 29.2799 12.0002C29.2947 12.134 29.3009 12.2677 29.3009 12.4003V12.4004Z" fill="white"/>
</g>
<defs>
<clipPath id="clip0">
<rect width="20" height="20" fill="white" transform="translate(15 12)"/>
</clipPath>
</defs>
</svg>
