<svg width="160" height="44" viewBox="0 0 160 44" fill="none" xmlns="http://www.w3.org/2000/svg">
<rect x="0.5" y="0.5" width="159" height="43" rx="6.5" fill="white" stroke="#F3F3F3"/>
<path d="M50.204 16.884V14.172H51.032C51.448 13.652 51.756 12.948 51.956 12.06C52.156 11.164 52.256 10.052 52.256 8.724V6.54H57.872V14.172H59.072V16.884H58.172V15H51.092V16.884H50.204ZM52.064 14.172H56.876V7.368H53.18V8.796C53.18 10.084 53.088 11.16 52.904 12.024C52.728 12.888 52.448 13.604 52.064 14.172ZM62.7358 15.108C62.1678 15.108 61.6758 14.984 61.2598 14.736C60.8438 14.488 60.5198 14.14 60.2878 13.692C60.0638 13.236 59.9518 12.7 59.9518 12.084C59.9518 11.468 60.0638 10.936 60.2878 10.488C60.5198 10.032 60.8438 9.68 61.2598 9.432C61.6758 9.184 62.1678 9.06 62.7358 9.06C63.2958 9.06 63.7838 9.184 64.1998 9.432C64.6238 9.68 64.9478 10.032 65.1718 10.488C65.4038 10.936 65.5198 11.468 65.5198 12.084C65.5198 12.7 65.4038 13.236 65.1718 13.692C64.9478 14.14 64.6238 14.488 64.1998 14.736C63.7838 14.984 63.2958 15.108 62.7358 15.108ZM62.7358 14.328C63.2798 14.328 63.7158 14.136 64.0438 13.752C64.3718 13.36 64.5358 12.804 64.5358 12.084C64.5358 11.356 64.3718 10.8 64.0438 10.416C63.7158 10.032 63.2798 9.84 62.7358 9.84C62.1838 9.84 61.7438 10.032 61.4158 10.416C61.0958 10.8 60.9358 11.356 60.9358 12.084C60.9358 12.804 61.0958 13.36 61.4158 13.752C61.7438 14.136 62.1838 14.328 62.7358 14.328ZM69.5807 15.108C68.9967 15.108 68.4927 14.984 68.0687 14.736C67.6447 14.48 67.3167 14.124 67.0847 13.668C66.8607 13.204 66.7487 12.664 66.7487 12.048C66.7487 11.12 67.0007 10.392 67.5047 9.864C68.0087 9.328 68.7007 9.06 69.5807 9.06C69.9407 9.06 70.2967 9.124 70.6487 9.252C71.0007 9.38 71.2927 9.56 71.5247 9.792L71.1887 10.5C70.9567 10.276 70.7007 10.112 70.4207 10.008C70.1487 9.904 69.8887 9.852 69.6407 9.852C69.0327 9.852 68.5647 10.044 68.2367 10.428C67.9087 10.804 67.7447 11.348 67.7447 12.06C67.7447 12.756 67.9087 13.308 68.2367 13.716C68.5647 14.116 69.0327 14.316 69.6407 14.316C69.8887 14.316 70.1487 14.264 70.4207 14.16C70.7007 14.056 70.9567 13.888 71.1887 13.656L71.5247 14.364C71.2927 14.596 70.9967 14.78 70.6367 14.916C70.2847 15.044 69.9327 15.108 69.5807 15.108ZM73.9806 15V9.948H71.8686V9.168H77.0766V9.948H74.9526V15H73.9806ZM78.8081 17.16L79.8041 14.904L77.3441 9.168H78.4001L80.3321 13.896L82.2761 9.168H83.2961L79.8281 17.16H78.8081ZM84.417 15V9.168H89.505V15H88.533V9.948H85.389V15H84.417ZM91.4248 15V9.168H92.3968V11.592H95.5768V9.168H96.5488V15H95.5768V12.384H92.3968V15H91.4248ZM100.904 15.108C100.336 15.108 99.8438 14.984 99.4278 14.736C99.0118 14.488 98.6878 14.14 98.4558 13.692C98.2318 13.236 98.1198 12.7 98.1198 12.084C98.1198 11.468 98.2318 10.936 98.4558 10.488C98.6878 10.032 99.0118 9.68 99.4278 9.432C99.8438 9.184 100.336 9.06 100.904 9.06C101.464 9.06 101.952 9.184 102.368 9.432C102.792 9.68 103.116 10.032 103.34 10.488C103.572 10.936 103.688 11.468 103.688 12.084C103.688 12.7 103.572 13.236 103.34 13.692C103.116 14.14 102.792 14.488 102.368 14.736C101.952 14.984 101.464 15.108 100.904 15.108ZM100.904 14.328C101.448 14.328 101.884 14.136 102.212 13.752C102.54 13.36 102.704 12.804 102.704 12.084C102.704 11.356 102.54 10.8 102.212 10.416C101.884 10.032 101.448 9.84 100.904 9.84C100.352 9.84 99.9118 10.032 99.5838 10.416C99.2638 10.8 99.1038 11.356 99.1038 12.084C99.1038 12.804 99.2638 13.36 99.5838 13.752C99.9118 14.136 100.352 14.328 100.904 14.328ZM108.347 15V9.168H111.191C111.879 9.168 112.387 9.3 112.715 9.564C113.043 9.82 113.207 10.2 113.207 10.704C113.207 11.008 113.119 11.272 112.943 11.496C112.775 11.72 112.543 11.884 112.247 11.988C112.607 12.076 112.887 12.244 113.087 12.492C113.295 12.74 113.399 13.04 113.399 13.392C113.399 13.888 113.215 14.28 112.847 14.568C112.479 14.856 111.959 15 111.287 15H108.347ZM109.271 11.7H111.143C111.511 11.7 111.795 11.62 111.995 11.46C112.195 11.292 112.295 11.056 112.295 10.752C112.295 10.456 112.195 10.228 111.995 10.068C111.795 9.908 111.511 9.828 111.143 9.828H109.271V11.7ZM109.271 14.34H111.251C111.651 14.34 111.955 14.256 112.163 14.088C112.371 13.92 112.475 13.672 112.475 13.344C112.475 13.024 112.371 12.78 112.163 12.612C111.955 12.444 111.651 12.36 111.251 12.36H109.271V14.34Z" fill="#010005"/>
<path d="M56.592 35.144C55.3653 35.144 54.3307 34.9147 53.488 34.456C52.6453 33.9867 52.0053 33.32 51.568 32.456C51.1413 31.592 50.928 30.5627 50.928 29.368C50.928 28.184 51.1467 27.16 51.584 26.296C52.0213 25.4213 52.656 24.7493 53.488 24.28C54.32 23.8107 55.3173 23.576 56.48 23.576C57.28 23.576 58.0213 23.6933 58.704 23.928C59.3867 24.1627 59.9573 24.4987 60.416 24.936L59.824 26.232C59.312 25.8053 58.7893 25.5013 58.256 25.32C57.7227 25.128 57.1307 25.032 56.48 25.032C55.232 25.032 54.2827 25.4107 53.632 26.168C52.9813 26.9147 52.656 27.9813 52.656 29.368C52.656 30.7867 52.9867 31.864 53.648 32.6C54.32 33.336 55.3227 33.704 56.656 33.704C57.4667 33.704 58.272 33.5707 59.072 33.304V30.28H56.32V29.032H60.464V34.344C59.984 34.5787 59.3867 34.7707 58.672 34.92C57.968 35.0693 57.2747 35.144 56.592 35.144ZM66.2311 35.144C65.4418 35.144 64.7591 34.9787 64.1831 34.648C63.6071 34.3173 63.1591 33.8533 62.8391 33.256C62.5298 32.648 62.3751 31.928 62.3751 31.096C62.3751 30.264 62.5298 29.5493 62.8391 28.952C63.1591 28.344 63.6071 27.8747 64.1831 27.544C64.7591 27.2133 65.4418 27.048 66.2311 27.048C66.9991 27.048 67.6711 27.2133 68.2471 27.544C68.8231 27.8747 69.2711 28.344 69.5911 28.952C69.9111 29.5493 70.0711 30.264 70.0711 31.096C70.0711 31.928 69.9111 32.648 69.5911 33.256C69.2711 33.8533 68.8231 34.3173 68.2471 34.648C67.6711 34.9787 66.9991 35.144 66.2311 35.144ZM66.2311 33.896C66.8925 33.896 67.4258 33.656 67.8311 33.176C68.2365 32.696 68.4391 32.0027 68.4391 31.096C68.4391 30.1893 68.2365 29.5013 67.8311 29.032C67.4258 28.552 66.8925 28.312 66.2311 28.312C65.5591 28.312 65.0205 28.552 64.6151 29.032C64.2098 29.5013 64.0071 30.1893 64.0071 31.096C64.0071 32.0027 64.2098 32.696 64.6151 33.176C65.0205 33.656 65.5591 33.896 66.2311 33.896ZM75.278 35.144C74.4887 35.144 73.806 34.9787 73.23 34.648C72.654 34.3173 72.206 33.8533 71.886 33.256C71.5767 32.648 71.422 31.928 71.422 31.096C71.422 30.264 71.5767 29.5493 71.886 28.952C72.206 28.344 72.654 27.8747 73.23 27.544C73.806 27.2133 74.4887 27.048 75.278 27.048C76.046 27.048 76.718 27.2133 77.294 27.544C77.87 27.8747 78.318 28.344 78.638 28.952C78.958 29.5493 79.118 30.264 79.118 31.096C79.118 31.928 78.958 32.648 78.638 33.256C78.318 33.8533 77.87 34.3173 77.294 34.648C76.718 34.9787 76.046 35.144 75.278 35.144ZM75.278 33.896C75.9393 33.896 76.4727 33.656 76.878 33.176C77.2833 32.696 77.486 32.0027 77.486 31.096C77.486 30.1893 77.2833 29.5013 76.878 29.032C76.4727 28.552 75.9393 28.312 75.278 28.312C74.606 28.312 74.0673 28.552 73.662 29.032C73.2567 29.5013 73.054 30.1893 73.054 31.096C73.054 32.0027 73.2567 32.696 73.662 33.176C74.0673 33.656 74.606 33.896 75.278 33.896ZM84.4689 38.024C83.7649 38.024 83.1089 37.9387 82.5009 37.768C81.8929 37.608 81.3542 37.352 80.8849 37L81.3809 35.848C81.8502 36.168 82.3302 36.4027 82.8209 36.552C83.3115 36.7013 83.8235 36.776 84.3569 36.776C85.8502 36.776 86.5969 36.0293 86.5969 34.536V33.304C86.3729 33.7733 86.0209 34.1413 85.5409 34.408C85.0715 34.6747 84.5435 34.808 83.9569 34.808C83.2529 34.808 82.6395 34.648 82.1169 34.328C81.5942 33.9973 81.1889 33.544 80.9009 32.968C80.6129 32.3813 80.4689 31.6987 80.4689 30.92C80.4689 30.152 80.6129 29.48 80.9009 28.904C81.1889 28.3173 81.5942 27.864 82.1169 27.544C82.6395 27.2133 83.2529 27.048 83.9569 27.048C84.5542 27.048 85.0875 27.1813 85.5569 27.448C86.0262 27.7147 86.3729 28.0827 86.5969 28.552V27.192H88.1649V34.344C88.1649 35.5707 87.8502 36.488 87.2209 37.096C86.5915 37.7147 85.6742 38.024 84.4689 38.024ZM84.3409 33.544C85.0235 33.544 85.5675 33.3093 85.9729 32.84C86.3782 32.3707 86.5809 31.7307 86.5809 30.92C86.5809 30.1093 86.3782 29.4747 85.9729 29.016C85.5675 28.5467 85.0235 28.312 84.3409 28.312C83.6582 28.312 83.1142 28.5467 82.7089 29.016C82.3035 29.4747 82.1009 30.1093 82.1009 30.92C82.1009 31.7307 82.3035 32.3707 82.7089 32.84C83.1142 33.3093 83.6582 33.544 84.3409 33.544ZM92.9769 35.144C92.1235 35.144 91.4835 34.904 91.0569 34.424C90.6409 33.944 90.4329 33.24 90.4329 32.312V23.72H92.0489V32.216C92.0489 33.272 92.4809 33.8 93.3449 33.8C93.4729 33.8 93.5902 33.7947 93.6969 33.784C93.8142 33.7733 93.9315 33.752 94.0489 33.72L94.0169 35.016C93.6542 35.1013 93.3075 35.144 92.9769 35.144ZM98.9094 35.144C97.6294 35.144 96.6214 34.7867 95.8854 34.072C95.1494 33.3467 94.7814 32.36 94.7814 31.112C94.7814 30.312 94.9414 29.608 95.2614 29C95.592 28.3813 96.0454 27.9013 96.6214 27.56C97.1974 27.2187 97.8587 27.048 98.6054 27.048C99.6827 27.048 100.531 27.3947 101.149 28.088C101.768 28.7707 102.077 29.7147 102.077 30.92V31.464H96.3494C96.4667 33.0853 97.3254 33.896 98.9254 33.896C99.3734 33.896 99.8107 33.8267 100.237 33.688C100.675 33.5493 101.085 33.32 101.469 33L101.949 34.12C101.597 34.44 101.144 34.6907 100.589 34.872C100.035 35.0533 99.4747 35.144 98.9094 35.144ZM98.6694 28.184C97.9974 28.184 97.464 28.392 97.0694 28.808C96.6747 29.224 96.4347 29.7787 96.3494 30.472H100.717C100.685 29.7467 100.493 29.1867 100.141 28.792C99.7894 28.3867 99.2987 28.184 98.6694 28.184ZM108.218 35V23.72H112.89C114.106 23.72 115.045 24.024 115.706 24.632C116.368 25.2293 116.698 26.072 116.698 27.16C116.698 28.2587 116.368 29.112 115.706 29.72C115.045 30.3173 114.106 30.616 112.89 30.616H109.882V35H108.218ZM109.882 29.288H112.65C114.272 29.288 115.082 28.5787 115.082 27.16C115.082 25.752 114.272 25.048 112.65 25.048H109.882V29.288ZM120.852 35.144C119.999 35.144 119.359 34.904 118.932 34.424C118.516 33.944 118.308 33.24 118.308 32.312V23.72H119.924V32.216C119.924 33.272 120.356 33.8 121.22 33.8C121.348 33.8 121.465 33.7947 121.572 33.784C121.689 33.7733 121.807 33.752 121.924 33.72L121.892 35.016C121.529 35.1013 121.183 35.144 120.852 35.144ZM125.695 35.144C125.151 35.144 124.665 35.0373 124.239 34.824C123.812 34.6107 123.471 34.3227 123.215 33.96C122.969 33.5973 122.847 33.1867 122.847 32.728C122.847 32.152 122.991 31.6987 123.279 31.368C123.577 31.0373 124.063 30.7973 124.735 30.648C125.417 30.4987 126.335 30.424 127.487 30.424H128.031V30.008C128.031 29.4 127.903 28.9627 127.647 28.696C127.391 28.4293 126.969 28.296 126.383 28.296C125.935 28.296 125.487 28.3653 125.039 28.504C124.591 28.632 124.132 28.84 123.663 29.128L123.167 27.992C123.572 27.704 124.079 27.4747 124.687 27.304C125.295 27.1333 125.876 27.048 126.431 27.048C127.497 27.048 128.287 27.304 128.799 27.816C129.311 28.3173 129.567 29.1067 129.567 30.184V35H128.047V33.704C127.855 34.152 127.556 34.504 127.151 34.76C126.745 35.016 126.26 35.144 125.695 35.144ZM126.015 33.992C126.591 33.992 127.071 33.7893 127.455 33.384C127.839 32.9787 128.031 32.4667 128.031 31.848V31.416H127.503C126.724 31.416 126.111 31.4533 125.663 31.528C125.225 31.6027 124.911 31.7307 124.719 31.912C124.537 32.0827 124.447 32.3227 124.447 32.632C124.447 33.0373 124.585 33.368 124.863 33.624C125.14 33.8693 125.524 33.992 126.015 33.992ZM132.514 37.88L133.906 34.792L130.642 27.192H132.37L134.77 33.128L137.202 27.192H138.866L134.21 37.88H132.514Z" fill="#010005"/>
<path d="M27.8225 17.7157L15.7547 11.0846C15.6031 11 15.4123 11.0047 15.2656 11.0893C15.1139 11.174 15.021 11.3245 15.021 11.4938C15.021 11.4938 15.0259 12.1051 15.0308 13.1116L23.8211 21.5626L27.8225 17.7157Z" fill="url(#paint0_linear)"/>
<path d="M15.0308 13.1116C15.0454 16.7422 15.0895 25.5554 15.109 29.9431L23.826 21.5626L15.0308 13.1116Z" fill="url(#paint1_linear)"/>
<path d="M34.7295 21.511L27.8224 17.7158L23.8162 21.5628L28.3361 25.9082L34.7344 22.3246C34.886 22.24 34.979 22.0848 34.979 21.9202C34.979 21.7509 34.8811 21.5957 34.7295 21.511Z" fill="url(#paint2_linear)"/>
<path d="M15.1042 29.9432C15.114 31.5092 15.1189 32.5109 15.1189 32.5109C15.1189 32.6802 15.2119 32.8354 15.3635 32.9154C15.5151 33 15.701 33 15.8527 32.9154L28.3411 25.9128L23.8212 21.5674L15.1042 29.9432Z" fill="url(#paint3_linear)"/>
<defs>
<linearGradient id="paint0_linear" x1="15.021" y1="16.2951" x2="27.8248" y2="16.2951" gradientUnits="userSpaceOnUse">
<stop stop-color="#63BE6B"/>
<stop offset="0.506" stop-color="#5BBC6A"/>
<stop offset="1" stop-color="#4AB96A"/>
</linearGradient>
<linearGradient id="paint1_linear" x1="15.0284" y1="21.5294" x2="23.8209" y2="21.5294" gradientUnits="userSpaceOnUse">
<stop stop-color="#3EC6F2"/>
<stop offset="1" stop-color="#45AFE3"/>
</linearGradient>
<linearGradient id="paint2_linear" x1="23.8209" y1="21.815" x2="34.9778" y2="21.815" gradientUnits="userSpaceOnUse">
<stop stop-color="#FAA51A"/>
<stop offset="0.387" stop-color="#FAB716"/>
<stop offset="0.741" stop-color="#FAC412"/>
<stop offset="1" stop-color="#FAC80F"/>
</linearGradient>
<linearGradient id="paint3_linear" x1="15.1064" y1="27.2729" x2="28.3409" y2="27.2729" gradientUnits="userSpaceOnUse">
<stop stop-color="#EC3B50"/>
<stop offset="1" stop-color="#E7515B"/>
</linearGradient>
</defs>
</svg>
