<svg width="152" height="25" viewBox="0 0 152 25" fill="none" xmlns="http://www.w3.org/2000/svg">
<path fill-rule="evenodd" clip-rule="evenodd" d="M37.5363 5.62713V11.8162C35.7067 11.8162 34.4282 12.2267 33.7009 13.0475C32.9736 13.8684 32.6101 14.9815 32.6102 16.3866V24.0877H26.4172V5.87254H32.5748V8.01743C33.138 7.2671 33.8744 6.6639 34.7212 6.2592C35.5985 5.8352 36.5618 5.61938 37.5363 5.62713ZM50.9073 0.000678472V7.0688C50.2091 6.62345 49.4509 6.28005 48.6555 6.04902C47.923 5.84054 47.1652 5.73403 46.4035 5.73248C45.2207 5.72523 44.0486 5.95657 42.9574 6.41266C41.8662 6.86875 40.8783 7.54021 40.0529 8.38683C39.2315 9.23737 38.5753 10.233 38.1176 11.323C37.6326 12.4685 37.387 13.7011 37.3962 14.945C37.3794 17.4117 38.3336 19.7862 40.0529 21.5561C40.8677 22.3804 41.836 23.0374 42.9031 23.4902C44.7224 24.26 46.7464 24.4022 48.6555 23.8943C49.4521 23.6748 50.2112 23.3369 50.9073 22.8921V24.0877H57.1003V0L50.9073 0.000678472ZM47.248 18.8484C46.7457 18.8512 46.2484 18.7494 45.7876 18.5495C44.8859 18.1642 44.1675 17.4462 43.782 16.545C43.5846 16.0715 43.4829 15.5635 43.4829 15.0505C43.4829 14.5375 43.5846 14.0295 43.782 13.556C44.1676 12.6549 44.8859 11.937 45.7876 11.5517C46.4727 11.2568 47.231 11.1762 47.9628 11.3206C48.6946 11.4649 49.3654 11.8275 49.8869 12.3604C50.2206 12.7081 50.4888 13.1131 50.6787 13.556C50.8762 14.0295 50.9778 14.5375 50.9778 15.0505C50.9778 15.5635 50.8762 16.0715 50.6787 16.545C50.4889 16.9879 50.2207 17.393 49.8869 17.7408C49.5434 18.0922 49.1329 18.3713 48.6797 18.5616C48.2264 18.7518 47.7396 18.8494 47.248 18.8484ZM68.1492 10.3385C67.2812 10.3385 66.5599 10.5437 65.9851 10.9541C65.3993 11.3784 64.9426 11.9565 64.6656 12.6244H71.3858C71.0809 11.7573 70.6176 11.1595 69.9959 10.831C69.4301 10.5175 68.7961 10.3481 68.1492 10.3385ZM76.6997 20.4659C76.3042 21.0281 75.85 21.5467 75.345 22.0131C74.797 22.5199 74.1883 22.957 73.5327 23.3142C72.8102 23.7059 72.042 24.0071 71.2457 24.2108C70.3373 24.4413 69.4029 24.5536 68.4657 24.5448C67.1183 24.556 65.781 24.3113 64.5249 23.824C63.3509 23.3723 62.2754 22.6977 61.3579 21.8375C60.4597 20.9837 59.747 19.9542 59.2642 18.8132C58.7518 17.6009 58.4943 16.2962 58.5077 14.9802C58.4977 13.6929 58.7553 12.4176 59.2642 11.2349C59.751 10.1004 60.4566 9.07285 61.3408 8.21086C62.2392 7.34301 63.2967 6.65648 64.4553 6.18892C65.6725 5.69259 66.9759 5.44164 68.2905 5.45047C69.5702 5.43447 70.8396 5.67977 72.021 6.17131C73.107 6.62457 74.0889 7.29475 74.9065 8.14073C75.7197 8.9974 76.3538 10.0075 76.7718 11.112C77.2252 12.3022 77.452 13.5666 77.4405 14.8401V15.7193C77.4405 15.9304 77.4348 16.1413 77.4234 16.3521C77.412 16.5629 77.4063 16.7035 77.4063 16.774H64.56C64.859 17.5797 65.392 18.2777 66.0907 18.7785C66.795 19.2747 67.6394 19.5334 68.501 19.5169C69.3166 19.5355 70.1231 19.3416 70.841 18.9543C71.4785 18.6049 72.0453 18.1398 72.5123 17.5829L76.6997 20.4659ZM90.0004 5.62627V11.8154C88.1707 11.8154 86.8923 12.2258 86.165 13.0467C85.4377 13.8676 85.0741 14.9809 85.0742 16.3866V24.0877H78.8811V5.87254H85.0388V8.01743C85.6021 7.2671 86.3385 6.6639 87.1852 6.2592C88.0626 5.83508 89.0258 5.61851 90.0004 5.62627Z" fill="white"/>
<path fill-rule="evenodd" clip-rule="evenodd" d="M107.418 10.3384C106.55 10.3384 105.829 10.5436 105.254 10.9541C104.668 11.3782 104.211 11.9563 103.934 12.6242H110.654C110.349 11.757 109.886 11.1592 109.265 10.8308C108.699 10.5172 108.064 10.3482 107.417 10.3386L107.418 10.3384ZM115.968 20.4658C115.573 21.0281 115.119 21.5467 114.614 22.013C114.066 22.5198 113.457 22.9568 112.802 23.3141C112.079 23.7058 111.311 24.007 110.514 24.2108C109.606 24.4413 108.672 24.5535 107.735 24.5448C106.387 24.5559 105.05 24.3113 103.794 23.8239C102.62 23.3722 101.544 22.6975 100.627 21.8372C99.7287 20.9834 99.016 19.954 98.5332 18.813C98.0208 17.6006 97.7633 16.2959 97.7766 14.98C97.7666 13.6927 98.0243 12.4173 98.5332 11.2347C99.0197 10.1002 99.7251 9.07253 100.609 8.21044C101.508 7.34268 102.565 6.65617 103.724 6.18851C104.941 5.69221 106.244 5.44126 107.559 5.45006C108.839 5.43409 110.108 5.67937 111.289 6.17089C112.375 6.62412 113.357 7.2943 114.175 8.14032C114.988 8.99699 115.622 10.0071 116.04 11.1116C116.494 12.3018 116.72 13.5662 116.709 14.8397V15.7189C116.709 15.93 116.703 16.1409 116.692 16.3517C116.68 16.5625 116.675 16.7031 116.675 16.7736H103.829C104.128 17.5793 104.661 18.2773 105.359 18.7781C106.064 19.2743 106.908 19.533 107.77 19.5165C108.585 19.5351 109.392 19.3412 110.11 18.9539C110.747 18.6045 111.314 18.1394 111.781 17.5825L115.968 20.466V20.4658ZM126.877 24.194C125.674 24.2021 124.482 23.9627 123.375 23.4908C122.308 23.0379 121.34 22.3809 120.525 21.5567C118.806 19.7868 117.852 17.4123 117.869 14.9456C117.859 13.7018 118.105 12.4692 118.59 11.3236C119.047 10.2336 119.704 9.23798 120.525 8.38744C121.351 7.54057 122.339 6.8689 123.43 6.41266C124.521 5.95642 125.694 5.72499 126.877 5.73224C127.638 5.73377 128.396 5.84029 129.128 6.04879C129.924 6.27978 130.682 6.62318 131.38 7.06856V5.87247H137.573V24.0878H131.38V22.8922C130.684 23.337 129.925 23.6748 129.128 23.8942C128.394 24.0913 127.637 24.1918 126.877 24.1931V24.194ZM127.72 11.2527C127.218 11.2498 126.72 11.3517 126.26 11.5516C125.358 11.9369 124.64 12.6548 124.254 13.5559C124.057 14.0295 123.955 14.5374 123.955 15.0504C123.955 15.5634 124.057 16.0714 124.254 16.5449C124.64 17.4461 125.358 18.1641 126.26 18.5494C126.945 18.8443 127.703 18.9249 128.435 18.7805C129.167 18.6362 129.838 18.2736 130.359 17.7407C130.693 17.3929 130.961 16.9878 131.151 16.5449C131.348 16.0714 131.45 15.5634 131.45 15.0504C131.45 14.5374 131.348 14.0295 131.151 13.5559C130.961 13.1131 130.693 12.7081 130.359 12.3603C130.016 12.0089 129.605 11.7297 129.152 11.5395C128.698 11.3492 128.212 11.2517 127.72 11.2527ZM147.882 5.87247H151.999V11.3929H147.883V16.7378C147.883 17.4882 148.041 18.0332 148.358 18.3729C148.675 18.7127 149.173 18.8827 149.854 18.8829H152V24.0873H148.516C146.1 24.0873 144.359 23.5657 143.291 22.5225C142.224 21.4793 141.69 19.8207 141.69 17.5467V11.3929H139.122V5.87247H141.69V1.40637H147.883L147.882 5.87247Z" fill="#009933"/>
<path fill-rule="evenodd" clip-rule="evenodd" d="M12.4143 17.76C12.9509 17.7467 13.4826 17.6552 13.9927 17.4881L17.4115 23.4059C15.0597 24.4892 12.4253 24.8013 9.88523 24.2977C7.34516 23.794 5.02957 22.5004 3.26974 20.6019C1.50992 18.7034 0.396037 16.2972 0.0874635 13.7277C-0.22111 11.1582 0.291434 8.55701 1.55177 6.29625C2.8121 4.0355 4.75565 2.23104 7.10433 1.14105C9.45302 0.0510525 12.0865 -0.268627 14.628 0.227748C17.1695 0.724122 19.4888 2.01111 21.254 3.90459C23.0193 5.79807 24.1401 8.20101 24.456 10.7696L24.5064 12.4569L10.2123 10.944L17.2839 9.98918C16.8726 9.08439 16.2237 8.3079 15.406 7.74228C14.5884 7.17667 13.6327 6.84308 12.6405 6.77698C11.6483 6.71089 10.6567 6.91476 9.77121 7.36692C8.8857 7.81908 8.13937 8.50263 7.61157 9.34486C7.08378 10.1871 6.79426 11.1565 6.77379 12.1501C6.75332 13.1437 7.00268 14.1242 7.49535 14.9874C7.98801 15.8507 8.70557 16.5643 9.5717 17.0525C10.4378 17.5407 11.4202 17.7852 12.4143 17.76Z" fill="white"/>
<path fill-rule="evenodd" clip-rule="evenodd" d="M12.2462 12.2655L18.4218 22.9552C20.1083 21.982 21.5407 20.6241 22.602 18.9922C23.6633 17.3603 24.3234 15.5007 24.5284 13.5652L12.2462 12.2655Z" fill="#009933"/>
</svg>
