<svg width="60" height="60" viewBox="0 0 60 60" fill="none" xmlns="http://www.w3.org/2000/svg">
<g clip-path="url(#clip0)">
<path d="M58.2422 4.6875C56.0242 4.6875 4.12945 4.6875 1.75781 4.6875C0.787031 4.6875 0 5.47453 0 6.44531V14.2718C0 16.2918 0.932109 18.0976 2.38828 19.2839V53.5547C2.38828 54.5255 3.17531 55.3125 4.14609 55.3125C5.11688 55.3125 5.90391 54.5255 5.90391 53.5547V20.7097C7.93605 20.8854 9.84387 20.1079 11.1722 18.696C12.3521 19.9505 14.0252 20.7361 15.8798 20.7361C17.5955 20.7361 19.298 20.0641 20.5877 18.6979C21.7677 19.9512 23.4401 20.7361 25.2933 20.7361H25.2935H25.2937C27.0452 20.7361 28.7494 20.0258 30.0002 18.6964C31.1802 19.9507 32.8533 20.7361 34.7073 20.7361H34.7077C34.7077 20.7361 34.7079 20.7361 34.708 20.7361C36.5046 20.7361 38.197 19.9904 39.4145 18.6963C40.6295 19.9875 42.3112 20.7361 44.122 20.7361C45.8494 20.7361 47.5571 20.048 48.829 18.6959C50.1587 20.1093 52.0666 20.885 54.0962 20.7098V53.5547C54.0962 54.5255 54.8832 55.3125 55.854 55.3125C56.8248 55.3125 57.6118 54.5255 57.6118 53.5547V19.2843C59.068 18.0981 60.0001 16.292 60.0001 14.2718V6.44531C60 5.47453 59.213 4.6875 58.2422 4.6875ZM50.5866 14.2718V13.5799C50.5866 12.6091 49.7995 11.8221 48.8288 11.8221C47.8601 11.8221 47.0704 12.6073 47.0704 13.5803V14.2721C47.0704 15.895 45.7486 17.22 44.1202 17.22C42.4939 17.22 41.1725 15.897 41.1725 14.2721V13.5803C41.1725 12.6075 40.3832 11.8221 39.414 11.8221C38.4432 11.8221 37.6562 12.6091 37.6562 13.5799V13.5803V14.2718V14.2721C37.6562 15.8978 36.3337 17.2202 34.707 17.2205C33.0834 17.2204 31.7583 15.8993 31.7583 14.2721V13.5803C31.7583 12.6095 30.9713 11.8225 30.0005 11.8225C30.0004 11.8225 30.0002 11.8225 30.0002 11.8225H30C29.0292 11.8225 28.2422 12.6095 28.2422 13.5803V14.2721C28.2422 15.8978 26.9197 17.2202 25.2929 17.2205C23.6793 17.2204 22.3571 15.9143 22.3448 14.2948V13.5799C22.3448 12.6091 21.5578 11.8221 20.587 11.8221C19.6158 11.8221 18.828 12.609 18.828 13.5803V14.2721C18.828 15.8914 17.5127 17.22 15.8784 17.22C14.2528 17.22 12.9302 15.8974 12.9302 14.2717V13.5802V13.5798C12.9302 12.609 12.1432 11.822 11.1724 11.822C10.2016 11.822 9.41461 12.609 9.41461 13.5798V13.5802V14.2717C9.41461 15.8974 8.09144 17.22 6.465 17.22C4.83879 17.22 3.51562 15.8974 3.51562 14.2718V8.20312H56.4844V14.2718C56.4844 15.8975 55.1618 17.2201 53.5361 17.2201C51.9097 17.22 50.5866 15.8974 50.5866 14.2718Z" fill="#009933"/>
<path d="M37.8572 35.734C37.1673 35.734 22.8327 35.734 22.1428 35.734C21.172 35.734 20.385 36.521 20.385 37.4918C20.385 38.4626 21.172 39.2496 22.1428 39.2496H28.2422V53.5547C28.2422 54.5255 29.0292 55.3125 30 55.3125C30.9708 55.3125 31.7578 54.5255 31.7578 53.5547V39.2496H37.8572C38.828 39.2496 39.615 38.4626 39.615 37.4918C39.615 36.521 38.828 35.734 37.8572 35.734Z" fill="#009933"/>
<path d="M48.9551 32.801C47.9895 32.6878 47.1175 33.3775 47.0043 34.3416L46.0147 42.7651C45.1805 42.7651 38.467 42.7651 37.6172 42.7651C36.6464 42.7651 35.8594 43.5521 35.8594 44.5229C35.8594 45.4937 36.6464 46.2807 37.6172 46.2807V53.5546C37.6172 54.5254 38.4042 55.3125 39.375 55.3125C40.3458 55.3125 41.1328 54.5254 41.1328 53.5546V46.2808H44.6484V53.5546C44.6484 54.5254 45.4355 55.3125 46.4062 55.3125C47.377 55.3125 48.1641 54.5254 48.1641 53.5546V46.1791C48.8146 45.9482 49.2482 45.3707 49.3239 44.7281L50.4957 34.7519C50.6091 33.7877 49.9193 32.9142 48.9551 32.801Z" fill="#009933"/>
<path d="M12.9959 34.3416C12.8827 33.3774 12.0087 32.6879 11.045 32.801C10.0808 32.9142 9.39105 33.7877 9.50437 34.7518L10.6762 44.7279C10.7537 45.3872 11.2021 45.9541 11.8361 46.179V53.5546C11.8361 54.5254 12.6231 55.3124 13.5939 55.3124C14.5646 55.3124 15.3517 54.5254 15.3517 53.5546V46.2808H18.8673V53.5546C18.8673 54.5254 19.6543 55.3124 20.6251 55.3124C21.5959 55.3124 22.3829 54.5254 22.3829 53.5546V46.2808C23.3537 46.2808 24.1407 45.4938 24.1407 44.523C24.1407 43.5522 23.3537 42.7652 22.3829 42.7652C21.5332 42.7652 14.82 42.7652 13.9854 42.7652L12.9959 34.3416Z" fill="#009933"/>
</g>
<defs>
<clipPath id="clip0">
<rect width="60" height="60" fill="white"/>
</clipPath>
</defs>
</svg>
