<svg width="26" height="26" viewBox="0 0 26 26" fill="none" xmlns="http://www.w3.org/2000/svg">
<g clip-path="url(#clip0)">
<path d="M13.0764 8.44237C13.0766 12.3218 9.93966 15.4587 6.06025 15.4587C3.53507 15.4587 1.32132 14.1247 0.0859076 12.1228C-0.190414 11.6753 0.246186 11.1233 0.744874 11.2903C1.38658 11.5055 2.07352 11.6222 2.78783 11.6229C6.34371 11.6263 9.24063 8.73198 9.24063 5.1761C9.24063 4.45961 9.12379 3.77049 8.90797 3.1266C8.74095 2.62811 9.29339 2.19171 9.7407 2.46783C11.7424 3.70364 13.0764 5.91719 13.0764 8.44237Z" fill="#F6CB43"/>
<path d="M13.0764 8.44262C13.0764 12.3173 9.93489 15.4588 6.06024 15.4588C3.67748 15.4588 1.57205 14.2712 0.304695 12.4553C1.44172 13.249 2.82472 13.7144 4.31582 13.7144C8.19047 13.7144 11.332 10.5729 11.332 6.698C11.332 5.2061 10.8664 3.82311 10.0726 2.68628C11.8888 3.95422 13.0764 6.05927 13.0764 8.44262Z" fill="#FAB03C"/>
<path d="M22.3718 16.5126C22.1472 12.8042 19.0692 9.86584 15.3042 9.86584C12.2679 9.86584 9.67823 11.7773 8.67173 14.4623C6.05708 14.4939 3.94688 16.6221 3.94688 19.2445C3.94688 21.8863 6.08862 24.0281 8.73044 24.0281H22.2404C24.3165 24.0281 25.9998 22.345 25.9998 20.2687C25.9998 18.2364 24.3871 16.5819 22.3718 16.5126Z" fill="#1E6BE7"/>
<path d="M26.0001 20.2687C26.0001 22.3448 24.3165 24.0283 22.2405 24.0283H21.9491C22.2216 23.5078 22.3759 22.9153 22.3759 22.2875C22.3759 20.2552 20.7634 18.6005 18.7478 18.531C18.5235 14.8228 15.4453 11.8842 11.6801 11.8842C11.1725 11.8842 10.6774 11.9376 10.2005 12.0392C11.4885 10.6998 13.2988 9.86609 15.3042 9.86609C19.0692 9.86609 22.1474 12.8041 22.372 16.5131C24.3874 16.5817 26.0001 18.2365 26.0001 20.2687Z" fill="#2081F6"/>
<path d="M20.4974 16.0861C20.3201 16.0861 20.1594 15.9651 20.1162 15.7852C20.0507 15.5123 19.9608 15.2431 19.8492 14.9852C19.7631 14.7864 19.8547 14.5553 20.0535 14.4692C20.2526 14.3832 20.4833 14.4748 20.5694 14.6736C20.6989 14.9729 20.8031 15.2851 20.8793 15.6019C20.9298 15.8126 20.8001 16.0244 20.5894 16.075C20.5585 16.0826 20.5278 16.0861 20.4974 16.0861Z" fill="#1E6BE7"/>
<path d="M19.1596 13.6441C19.0565 13.6441 18.9535 13.6038 18.8766 13.5235C17.9322 12.5396 16.6634 11.9977 15.3042 11.9977C15.0876 11.9977 14.9121 11.8221 14.9121 11.6053C14.9121 11.3887 15.0876 11.2131 15.3042 11.2131C16.8792 11.2131 18.3489 11.8406 19.4427 12.9802C19.5927 13.1365 19.5875 13.3848 19.4314 13.535C19.3552 13.6078 19.2572 13.6441 19.1596 13.6441Z" fill="#1E6BE7"/>
<path d="M2.91671 18.6552C3.07699 16.0039 5.27765 13.9032 7.96925 13.9032C10.14 13.9032 11.9915 15.2697 12.711 17.1893C14.5803 17.2119 16.0889 18.7336 16.0889 20.6081C16.0889 22.4969 14.5577 24.0281 12.6689 24.0281C11.8782 24.0281 3.82284 24.0281 3.01054 24.0281C1.52618 24.0281 0.322899 22.8248 0.322899 21.3405C0.322899 19.8877 1.47579 18.7048 2.91671 18.6552Z" fill="#38AAFF"/>
<path d="M16.0891 20.6084C16.0891 22.4808 14.5833 24.0019 12.7161 24.0273C13.2759 23.4181 13.6173 22.6064 13.6173 21.7145C13.6173 19.8402 12.1089 18.3183 10.2391 18.2955C9.51966 16.3763 7.66852 15.0096 5.49742 15.0096C5.24094 15.0096 4.98901 15.0288 4.74245 15.0657C5.61823 14.3395 6.74256 13.9033 7.96904 13.9033C10.1403 13.9033 11.9913 15.2695 12.7108 17.1892C14.5805 17.212 16.0891 18.7333 16.0891 20.6084Z" fill="#2081F6"/>
<path d="M23.1809 10.6546C23.1803 10.6546 23.1797 10.6546 23.1789 10.6546C22.9623 10.6536 22.7876 10.477 22.7886 10.2602L22.7893 10.1067C22.7903 9.89067 22.9659 9.71631 23.1817 9.71631H23.1837C23.4003 9.7173 23.5751 9.89384 23.5741 10.1107L23.5733 10.2642C23.5723 10.4802 23.3967 10.6546 23.1809 10.6546Z" fill="#F6CB43"/>
<path d="M23.1761 12.2189C23.1755 12.2189 23.1749 12.2189 23.1743 12.2189C22.9575 12.2179 22.7828 12.0413 22.7838 11.8247L22.7844 11.671C22.7855 11.455 22.9609 11.2804 23.1767 11.2804H23.1787C23.3953 11.2814 23.5701 11.4579 23.5691 11.6745L23.5685 11.8283C23.5675 12.0445 23.3919 12.2189 23.1761 12.2189Z" fill="#F6CB43"/>
<path d="M24.0396 11.3627C24.039 11.3627 24.0384 11.3627 24.0378 11.3627L23.8837 11.3619C23.6671 11.3609 23.4923 11.1843 23.4933 10.9677C23.4943 10.7517 23.6696 10.5771 23.8855 10.5771H23.8874L24.0414 10.5779C24.2582 10.5789 24.433 10.7553 24.432 10.9721C24.431 11.1881 24.2556 11.3627 24.0396 11.3627Z" fill="#F6CB43"/>
<path d="M22.4721 11.3577C22.4715 11.3577 22.4709 11.3577 22.4703 11.3577L22.3162 11.3571C22.0996 11.3561 21.9248 11.1796 21.9258 10.963C21.9268 10.7467 22.1022 10.5724 22.318 10.5724H22.32L22.4739 10.573C22.6905 10.5742 22.8655 10.7505 22.8645 10.9673C22.8635 11.1833 22.6879 11.3577 22.4721 11.3577Z" fill="#F6CB43"/>
<path d="M21.0722 7.90262C21.0714 7.90262 21.0711 7.90262 21.0703 7.90262C20.8536 7.90163 20.6787 7.72508 20.6799 7.50847L20.6805 7.35474C20.6815 7.13872 20.857 6.96436 21.0728 6.96436H21.0746C21.2914 6.96535 21.4662 7.14169 21.4652 7.3585L21.4644 7.51204C21.4634 7.72826 21.2879 7.90262 21.0722 7.90262Z" fill="#FAB03C"/>
<path d="M21.0672 9.4669C21.0666 9.4669 21.0661 9.4669 21.0655 9.4669C20.8486 9.46591 20.6739 9.28937 20.6749 9.07275L20.6757 8.91902C20.6767 8.70221 20.8512 8.52844 21.0698 8.52844C21.2864 8.52943 21.4614 8.70598 21.4604 8.92259L21.4596 9.07632C21.4586 9.29234 21.2831 9.4669 21.0672 9.4669Z" fill="#FAB03C"/>
<path d="M21.9307 8.61084C21.9301 8.61084 21.9295 8.61084 21.9289 8.61084L21.7748 8.61005C21.5582 8.60886 21.3834 8.43251 21.3844 8.2157C21.3854 7.99968 21.561 7.82532 21.7768 7.82532H21.7786L21.9327 7.82611C22.1493 7.8271 22.3241 8.00365 22.3231 8.22026C22.3221 8.43628 22.1465 8.61084 21.9307 8.61084Z" fill="#FAB03C"/>
<path d="M20.3632 8.60583C20.3626 8.60583 20.3621 8.60583 20.3613 8.60583L20.2073 8.60504C19.9907 8.60405 19.816 8.4275 19.8169 8.21089C19.8179 7.99487 19.9935 7.82031 20.2091 7.82031H20.2111L20.365 7.82111C20.5818 7.8223 20.7566 7.99864 20.7556 8.21545C20.7546 8.43147 20.5791 8.60583 20.3632 8.60583Z" fill="#FAB03C"/>
<path d="M14.2181 2.91893C14.2173 2.91893 14.2169 2.91893 14.2161 2.91893C13.9995 2.91774 13.8248 2.74139 13.8258 2.52458L13.8264 2.37105C13.8273 2.15503 14.0029 1.98047 14.2187 1.98047H14.2205C14.4373 1.98146 14.6121 2.158 14.6111 2.37462L14.6103 2.52835C14.6093 2.74437 14.4339 2.91893 14.2181 2.91893Z" fill="#F6CB43"/>
<path d="M14.2133 4.48306C14.2127 4.48306 14.2121 4.48306 14.2115 4.48306C13.9947 4.48207 13.8199 4.30573 13.8209 4.08891L13.8217 3.93538C13.8227 3.71916 13.9982 3.5448 14.2139 3.5448H14.2159C14.4325 3.54579 14.6074 3.72214 14.6062 3.93895L14.6056 4.09248C14.6047 4.3087 14.4291 4.48306 14.2133 4.48306Z" fill="#F6CB43"/>
<path d="M15.0769 3.62683C15.0761 3.62683 15.0755 3.62683 15.0749 3.62683L14.921 3.62604C14.7042 3.62505 14.5294 3.4485 14.5304 3.23189C14.5314 3.01508 14.707 2.8421 14.9248 2.84131L15.0787 2.8421C15.2953 2.84329 15.4701 3.01964 15.4691 3.23645C15.4681 3.45247 15.2927 3.62683 15.0769 3.62683Z" fill="#F6CB43"/>
<path d="M13.5095 3.62207C13.5087 3.62207 13.5081 3.62207 13.5075 3.62207L13.3536 3.62128C13.1368 3.62029 12.962 3.44394 12.963 3.22713C12.964 3.01111 13.1395 2.83655 13.3553 2.83655H13.3571L13.5113 2.83734C13.7279 2.83833 13.9026 3.01488 13.9016 3.23149C13.9007 3.44751 13.7253 3.62207 13.5095 3.62207Z" fill="#F6CB43"/>
<path d="M2.39242 8.30814C2.39182 8.30814 2.39122 8.30814 2.39063 8.30814C2.17382 8.30715 1.99906 8.1308 2.00005 7.91399L2.00084 7.76045C2.00184 7.54424 2.17719 7.36987 2.39301 7.36987H2.39499C2.61161 7.37086 2.78637 7.54721 2.78538 7.76402L2.78478 7.91756C2.78379 8.13377 2.60824 8.30814 2.39242 8.30814Z" fill="#F6CB43"/>
<path d="M2.38749 9.87235C2.3869 9.87235 2.3863 9.87235 2.38571 9.87235C2.1689 9.87136 1.99414 9.69481 1.99513 9.478L1.99592 9.32446C1.99711 9.10844 2.17247 8.93408 2.38829 8.93408H2.39027C2.60689 8.93507 2.78164 9.11162 2.78065 9.32823L2.77986 9.48197C2.77887 9.69798 2.60331 9.87235 2.38749 9.87235Z" fill="#F6CB43"/>
<path d="M3.25115 9.01624C3.25055 9.01624 3.24976 9.01624 3.24917 9.01624L3.09523 9.01544C2.87862 9.01445 2.70366 8.83791 2.70466 8.62129C2.70585 8.40527 2.8812 8.23071 3.09702 8.23071H3.099L3.25293 8.23151C3.46955 8.2325 3.64431 8.40884 3.64331 8.62566C3.64232 8.84167 3.46697 9.01624 3.25115 9.01624Z" fill="#F6CB43"/>
<path d="M1.68375 9.01128C1.68316 9.01128 1.68256 9.01128 1.68177 9.01128L1.52784 9.01068C1.31122 9.00969 1.13627 8.83315 1.13726 8.61653C1.13825 8.40031 1.3138 8.22595 1.52962 8.22595H1.53141L1.68554 8.22655C1.90215 8.22774 2.07711 8.40408 2.07592 8.6209C2.07493 8.83691 1.89957 9.01128 1.68375 9.01128Z" fill="#F6CB43"/>
</g>
<defs>
<clipPath id="clip0">
<rect width="26" height="26" fill="white"/>
</clipPath>
</defs>
</svg>
