<svg width="26" height="26" viewBox="0 0 26 26" fill="none" xmlns="http://www.w3.org/2000/svg">
<g clip-path="url(#clip0)">
<path d="M15.5988 12.0526C15.5988 15.3291 12.9425 17.9854 9.66595 17.9854C6.38937 17.9854 3.73328 15.3291 3.73328 12.0526C3.73328 8.77597 6.38937 6.11987 9.66595 6.11987C12.9425 6.11987 15.5988 8.77597 15.5988 12.0526Z" fill="#F6CB43"/>
<path d="M15.5986 12.0524C15.5986 15.3292 12.9425 17.9853 9.66589 17.9853C6.79199 17.9853 4.39516 15.9419 3.84985 13.2287C4.23032 13.3053 4.62328 13.3456 5.02615 13.3456C8.30293 13.3456 10.9588 10.6895 10.9588 7.41267C10.9588 7.0098 10.9188 6.61684 10.842 6.23657C13.5554 6.78227 15.5986 9.17911 15.5986 12.0524Z" fill="#FAB03C"/>
<path d="M9.66583 4.43761C9.45239 4.43761 9.27942 4.26443 9.27942 4.05099V2.77313C9.27942 2.55969 9.45239 2.38672 9.66583 2.38672C9.87947 2.38672 10.0524 2.55969 10.0524 2.77313V4.05099C10.0524 4.26443 9.87947 4.43761 9.66583 4.43761Z" fill="#F8E98E"/>
<path d="M5.66547 5.50955C5.53197 5.50955 5.40204 5.44032 5.33043 5.31635L4.6915 4.20967C4.58478 4.0248 4.64806 3.78854 4.83294 3.68182C5.01781 3.57491 5.25426 3.63838 5.36098 3.82326L5.99991 4.92973C6.10663 5.11461 6.04335 5.35106 5.85848 5.45778C5.79758 5.49289 5.73113 5.50955 5.66547 5.50955Z" fill="#F8E98E"/>
<path d="M2.73597 8.43841C2.67031 8.43841 2.60386 8.42174 2.54296 8.38663L1.43629 7.7477C1.25161 7.64098 1.18813 7.40453 1.29485 7.21965C1.40157 7.03478 1.63802 6.9715 1.8229 7.07822L2.92957 7.71715C3.11425 7.82387 3.17773 8.06032 3.07101 8.245C2.9994 8.36918 2.86947 8.43841 2.73597 8.43841Z" fill="#F8E98E"/>
<path d="M1.66428 12.4393H0.386414C0.172974 12.4393 0 12.2661 0 12.0527C0 11.8392 0.172974 11.6663 0.386414 11.6663H1.66428C1.87791 11.6663 2.05089 11.8392 2.05089 12.0527C2.05089 12.2661 1.87791 12.4393 1.66428 12.4393Z" fill="#F8E98E"/>
<path d="M16.596 8.43841C16.4625 8.43841 16.3323 8.36918 16.2609 8.245C16.154 8.06012 16.2175 7.82387 16.4024 7.71715L17.5088 7.07822C17.6939 6.9715 17.9302 7.03478 18.0369 7.21965C18.1436 7.40453 18.0803 7.64098 17.8954 7.7477L16.7888 8.38663C16.7279 8.42174 16.6614 8.43841 16.596 8.43841Z" fill="#F8E98E"/>
<path d="M1.63025 17.079C1.49656 17.079 1.36663 17.0098 1.29502 16.8856C1.1883 16.7009 1.25158 16.4645 1.43645 16.3577L2.54313 15.7188C2.728 15.6119 2.96445 15.6754 3.07117 15.8602C3.17789 16.0451 3.11461 16.2814 2.92974 16.3883L1.82306 17.0272C1.76217 17.0623 1.69571 17.079 1.63025 17.079Z" fill="#F8E98E"/>
<path d="M13.6662 5.50955C13.6008 5.50955 13.5343 5.49289 13.4734 5.45778C13.2886 5.35106 13.2253 5.11461 13.332 4.92973L13.9709 3.82326C14.0777 3.63838 14.3141 3.57491 14.4988 3.68182C14.6837 3.78854 14.7471 4.0248 14.6404 4.20967L14.0015 5.31635C13.9299 5.44032 13.7999 5.50955 13.6662 5.50955Z" fill="#F8E98E"/>
<path d="M22.695 16.8058C22.4906 13.4279 19.6868 10.7513 16.2574 10.7513C13.4917 10.7513 11.1329 12.4924 10.2163 14.938C7.8345 14.9668 5.91235 16.9054 5.91235 19.2941C5.91235 21.7005 7.86327 23.6514 10.2696 23.6514H22.5753C24.4666 23.6514 25.9997 22.1182 25.9997 20.227C25.9997 18.3759 24.5306 16.8689 22.695 16.8058Z" fill="#60DAFF"/>
<path d="M26.0001 20.2271C26.0001 22.1183 24.4667 23.6516 22.5755 23.6516H22.3103C22.5585 23.1775 22.6991 22.6378 22.6991 22.0659C22.6991 20.2148 21.2302 18.7076 19.3944 18.6443C19.1898 15.2666 16.386 12.5898 12.9566 12.5898C12.4941 12.5898 12.0432 12.6386 11.6088 12.7311C12.7819 11.5109 14.4309 10.7516 16.2576 10.7516C19.6869 10.7516 22.491 13.4277 22.6953 16.8061C24.5312 16.8687 26.0001 18.3759 26.0001 20.2271Z" fill="#60DAFF"/>
<path d="M20.9877 16.4464C20.8131 16.4464 20.6548 16.3272 20.6122 16.1501C20.5529 15.9029 20.4716 15.6593 20.3706 15.426C20.2859 15.2303 20.3759 15.0027 20.5719 14.9178C20.7677 14.8331 20.9952 14.9232 21.0801 15.1192C21.1988 15.3931 21.2942 15.6792 21.364 15.9694C21.4138 16.1771 21.286 16.3857 21.0786 16.4355C21.048 16.4429 21.0177 16.4464 20.9877 16.4464Z" fill="#A0ECFF"/>
<path d="M19.7694 14.2221C19.6679 14.2221 19.5663 14.1822 19.4905 14.1031C18.6358 13.2126 17.4876 12.7222 16.2576 12.7222C16.0441 12.7222 15.871 12.5493 15.871 12.3358C15.871 12.1224 16.0441 11.9492 16.2576 11.9492C17.7001 11.9492 19.0464 12.5241 20.0481 13.5679C20.1959 13.722 20.1909 13.9666 20.0368 14.1144C19.962 14.1862 19.8656 14.2221 19.7694 14.2221Z" fill="#A0ECFF"/>
<path d="M4.97404 18.7573C5.12024 16.3423 7.12471 14.4288 9.57629 14.4288C11.5536 14.4288 13.2399 15.6736 13.8953 17.422C15.598 17.4426 16.9721 18.8286 16.9721 20.5361C16.9721 22.2565 15.5776 23.6512 13.8572 23.6512C13.1369 23.6512 5.79964 23.6512 5.05954 23.6512C3.70749 23.6512 2.61133 22.5552 2.61133 21.2032C2.61133 19.8799 3.66167 18.8024 4.97404 18.7573Z" fill="#F0F5F7"/>
<path d="M16.9725 20.5364C16.9725 22.2419 15.601 23.6275 13.9002 23.6507C14.41 23.0957 14.7211 22.3564 14.7211 21.5441C14.7211 19.8368 13.347 18.4506 11.6438 18.4298C10.9886 16.6816 9.30235 15.4366 7.32486 15.4366C7.09119 15.4366 6.86168 15.4543 6.63733 15.4878C7.43495 14.8265 8.45911 14.429 9.57629 14.429C11.5538 14.429 13.2401 15.6733 13.8953 17.4223C15.5984 17.4429 16.9725 18.8285 16.9725 20.5364Z" fill="#DDE9ED"/>
</g>
<defs>
<clipPath id="clip0">
<rect width="26" height="26" fill="white"/>
</clipPath>
</defs>
</svg>
