<svg width="36" height="36" viewBox="0 0 36 36" fill="none" xmlns="http://www.w3.org/2000/svg">
<circle cx="18" cy="18" r="18" fill="#1DA1F2"/>
<g clip-path="url(#clip0)">
<path d="M14.6626 25.3125C21.4534 25.3125 25.1687 19.6851 25.1687 14.8065C25.1687 14.6483 25.1652 14.4865 25.1582 14.3283C25.8809 13.8057 26.5046 13.1583 27 12.4165C26.3269 12.716 25.6122 12.9116 24.8804 12.9966C25.651 12.5347 26.2279 11.8092 26.5043 10.9544C25.7794 11.384 24.9867 11.687 24.1601 11.8505C23.6031 11.2587 22.8667 10.8669 22.0648 10.7356C21.2628 10.6043 20.4399 10.7408 19.7233 11.1241C19.0067 11.5074 18.4363 12.1161 18.1004 12.856C17.7644 13.596 17.6816 14.426 17.8646 15.2178C16.3969 15.1441 14.961 14.7628 13.65 14.0986C12.339 13.4344 11.1823 12.5021 10.2547 11.3622C9.7833 12.175 9.63904 13.1368 9.85127 14.0521C10.0635 14.9675 10.6163 15.7676 11.3973 16.2901C10.811 16.2714 10.2375 16.1136 9.72422 15.8295V15.8752C9.72369 16.7282 10.0186 17.555 10.5587 18.2151C11.0989 18.8753 11.851 19.328 12.6872 19.4963C12.144 19.6449 11.574 19.6666 11.0211 19.5596C11.2571 20.2931 11.7162 20.9347 12.3343 21.3948C12.9525 21.8549 13.6988 22.1105 14.4693 22.126C13.1613 23.1534 11.5456 23.7107 9.88242 23.708C9.58747 23.7076 9.2928 23.6895 9 23.6539C10.6896 24.7379 12.6551 25.3136 14.6626 25.3125Z" fill="white"/>
</g>
<defs>
<clipPath id="clip0">
<rect width="18" height="18" fill="white" transform="translate(9 9)"/>
</clipPath>
</defs>
</svg>
