<svg width="60" height="60" viewBox="0 0 60 60" fill="none" xmlns="http://www.w3.org/2000/svg">
<g clip-path="url(#clip0)">
<path d="M30 24.2578C35.6217 24.2578 40.1953 19.6842 40.1953 14.0625C40.1953 8.44078 35.6217 3.86719 30 3.86719C24.3783 3.86719 19.8047 8.44078 19.8047 14.0625C19.8047 19.6842 24.3783 24.2578 30 24.2578ZM30 7.38281C33.6832 7.38281 36.6797 10.3793 36.6797 14.0625C36.6797 17.7457 33.6832 20.7422 30 20.7422C26.3168 20.7422 23.3203 17.7457 23.3203 14.0625C23.3203 10.3793 26.3168 7.38281 30 7.38281Z" fill="#009933"/>
<path d="M50.625 24.2578C54.1789 24.2578 57.0703 21.3664 57.0703 17.8125C57.0703 14.2586 54.1789 11.3672 50.625 11.3672C47.0711 11.3672 44.1797 14.2586 44.1797 17.8125C44.1797 21.3664 47.0711 24.2578 50.625 24.2578ZM50.625 14.8828C52.2404 14.8828 53.5547 16.1971 53.5547 17.8125C53.5547 19.4279 52.2404 20.7422 50.625 20.7422C49.0096 20.7422 47.6953 19.4279 47.6953 17.8125C47.6953 16.1971 49.0096 14.8828 50.625 14.8828Z" fill="#009933"/>
<path d="M52.043 28.2422H49.3242C46.1204 28.2422 43.3548 30.135 42.0946 32.8537C39.4999 30.0213 35.773 28.2422 31.6382 28.2422H28.362C24.2271 28.2422 20.5002 30.0213 17.9055 32.8537C16.6452 30.135 13.8796 28.2422 10.6758 28.2422H7.95703C3.56953 28.2422 0 31.7902 0 36.1512V48.9492C0 50.8425 1.54617 52.3828 3.44672 52.3828H14.196C14.3762 54.4805 16.1401 56.1328 18.2838 56.1328H41.7163C43.8599 56.1328 45.6238 54.4805 45.8041 52.3828H56.4306C58.3989 52.3828 60.0001 50.7879 60.0001 48.8273V36.1512C60 31.7902 56.4305 28.2422 52.043 28.2422ZM3.51562 36.1512C3.51562 33.7287 5.50805 31.7578 7.95703 31.7578H10.6758C13.1248 31.7578 15.1172 33.7287 15.1172 36.1512V37.3548C13.9351 40.4326 14.1797 42.2771 14.1797 48.8672H3.51562V36.1512ZM42.3047 52.0288C42.3047 52.3533 42.0408 52.6172 41.7163 52.6172H18.2837C17.9592 52.6172 17.6953 52.3532 17.6953 52.0288V42.4245C17.6953 36.5428 22.4803 31.7578 28.3618 31.7578H31.638C37.5197 31.7578 42.3047 36.5428 42.3047 42.4243V52.0288ZM56.4844 48.8273C56.4844 48.8879 57.1397 48.8672 45.8203 48.8672C45.8203 42.2284 46.063 40.4276 44.8828 37.3548V36.1512C44.8828 33.7287 46.8752 31.7578 49.3242 31.7578H52.043C54.492 31.7578 56.4844 33.7287 56.4844 36.1512V48.8273Z" fill="#009933"/>
<path d="M9.375 24.2578C12.9289 24.2578 15.8203 21.3664 15.8203 17.8125C15.8203 14.2586 12.9289 11.3672 9.375 11.3672C5.82105 11.3672 2.92969 14.2586 2.92969 17.8125C2.92969 21.3664 5.82105 24.2578 9.375 24.2578ZM9.375 14.8828C10.9904 14.8828 12.3047 16.1971 12.3047 17.8125C12.3047 19.4279 10.9904 20.7422 9.375 20.7422C7.75957 20.7422 6.44531 19.4279 6.44531 17.8125C6.44531 16.1971 7.75957 14.8828 9.375 14.8828Z" fill="#009933"/>
</g>
<defs>
<clipPath id="clip0">
<rect width="60" height="60" fill="white"/>
</clipPath>
</defs>
</svg>
