<svg width="60" height="60" viewBox="0 0 60 60" fill="none" xmlns="http://www.w3.org/2000/svg">
<g clip-path="url(#clip0)">
<path d="M40.2769 34.0159C40.09 33.8449 39.8837 33.6908 39.6579 33.5588C38.8447 33.0831 37.9123 32.9523 37.0314 33.1649V30.8341C40.2168 28.608 42.3048 24.9146 42.3048 20.7423V14.0933L45.202 10.4719C46.7639 8.51953 47.0613 5.90695 45.9783 3.65344C44.8951 1.3998 42.6691 0 40.1689 0H25.3125C21.1124 0 17.6953 3.41707 17.6953 7.61719V13.4766V20.7422C17.6953 24.9145 19.7834 28.6079 22.9688 30.834V33.1648C22.0879 32.9522 21.1554 33.0831 20.3422 33.5588C20.1163 33.6908 19.9102 33.845 19.7232 34.0159C12.7165 34.4829 7.14844 40.3467 7.14844 47.4609V58.2422C7.14844 59.213 7.93547 60 8.90625 60H51.0938C52.0645 60 52.8516 59.213 52.8516 58.2422V47.4609C52.8516 40.3467 47.2835 34.4829 40.2769 34.0159ZM42.3047 56.4844H17.6953V47.486L20.2042 44.3136C20.2498 44.343 20.295 44.3728 20.3421 44.4004C20.9046 44.7293 21.5241 44.8939 22.144 44.8939C22.7443 44.8939 23.3453 44.7395 23.8951 44.4301L30 40.9964L36.1048 44.4302C36.6547 44.7396 37.2554 44.8941 37.8559 44.8941C38.4758 44.8941 39.0954 44.7293 39.6578 44.4005C39.705 44.3729 39.7502 44.343 39.7957 44.3138L42.3047 47.486V56.4844ZM22.1716 36.593L26.4145 38.9796L22.1716 41.3661C22.1532 41.3764 22.1442 41.3816 22.117 41.3657C22.0898 41.3498 22.0898 41.3393 22.0898 41.3183V36.6409C22.0898 36.6199 22.0898 36.6094 22.117 36.5934C22.1293 36.5862 22.138 36.5834 22.1455 36.5834C22.1545 36.5834 22.1617 36.5873 22.1716 36.593ZM37.883 36.5934C37.9102 36.6094 37.9102 36.6199 37.9102 36.6409V41.3183C37.9102 41.3393 37.9102 41.3498 37.883 41.3657C37.8559 41.3816 37.8468 41.3764 37.8284 41.3661L33.5855 38.9796L37.8284 36.593C37.8466 36.5827 37.8559 36.5775 37.883 36.5934ZM21.2109 7.61719C21.2109 5.35559 23.0509 3.51562 25.3125 3.51562H40.1689C41.3227 3.51562 42.3097 4.13637 42.8095 5.17617C43.3093 6.21598 43.1774 7.37461 42.4567 8.27543L39.7021 11.7188H35.2404C32.6779 11.7188 30.3739 10.2949 29.228 8.00297C28.9302 7.40742 28.3214 7.03125 27.6557 7.03125C26.9899 7.03125 26.3812 7.40742 26.0835 8.00297C25.1105 9.94898 23.303 11.2691 21.2109 11.6234V7.61719ZM21.2109 20.7422V15.1717C23.7177 14.8963 25.9958 13.7196 27.6558 11.8815C29.5642 13.9948 32.2897 15.2344 35.2404 15.2344H38.7891V20.7422C38.7891 25.5885 34.8463 29.5312 30 29.5312C25.1537 29.5312 21.2109 25.5885 21.2109 20.7422ZM30 33.0469C31.2212 33.0469 32.4012 32.8672 33.5156 32.5343V34.9853L30 36.9628L26.4844 34.9853V32.5343C27.5988 32.8671 28.7788 33.0469 30 33.0469ZM10.6641 47.4609C10.6641 42.6807 14.0651 38.6638 18.5742 37.7136V40.7073L14.5588 45.7847C14.3133 46.095 14.1797 46.4793 14.1797 46.875V56.4844H10.6641V47.4609ZM49.3359 56.4844H45.8203V46.875C45.8203 46.4793 45.6867 46.095 45.4412 45.7846L41.4258 40.7073V37.7136C45.9349 38.6638 49.3359 42.6807 49.3359 47.4609V56.4844Z" fill="#009933"/>
<path d="M30 47.9297C30.9708 47.9297 31.7578 47.1427 31.7578 46.1719C31.7578 45.2011 30.9708 44.4141 30 44.4141C29.0292 44.4141 28.2422 45.2011 28.2422 46.1719C28.2422 47.1427 29.0292 47.9297 30 47.9297Z" fill="#009933"/>
<path d="M30 53.7891C30.9708 53.7891 31.7578 53.0021 31.7578 52.0312C31.7578 51.0604 30.9708 50.2734 30 50.2734C29.0292 50.2734 28.2422 51.0604 28.2422 52.0312C28.2422 53.0021 29.0292 53.7891 30 53.7891Z" fill="#009933"/>
</g>
<defs>
<clipPath id="clip0">
<rect width="60" height="60" fill="white"/>
</clipPath>
</defs>
</svg>
